<svg id="Layer_1" data-name="Layer 1" xmlns="http://www.w3.org/2000/svg" viewBox="0 0 815.41 182.33"><defs><style>.cls-1{fill:#e07a5f;stroke:#000;stroke-miterlimit:10;stroke-width:2px;}.cls-2{fill:#fefefe;}.cls-3{fill:#131414;}.cls-4{fill:#1b1c1c;}.cls-5{fill:#191b1b;}.cls-6{fill:#fdfdfd;}.cls-7{fill:#343735;}.cls-8{fill:#010101;}.cls-9{fill:#1b1b1b;}</style></defs><title>ighil</title><path d="M354,52c0-2.21-.74-2.69-2.77-2.66-6.37.11-12.74,0.16-19.11,0-2.51-.07-2.83,1-2.81,3.08,0,2.48.53,5.06-.45,7.7C315,43.65,284.86,45.27,269,59.6s-18,40.81-4.6,58.51c12.46,16.48,44.9,23.66,63.83,5.76,0,1.62,0,2.74,0,3.86-0.58,14-5.71,20.77-18.68,23-13.16,2.26-25.54-.61-36.78-7.83-1.84-1.18-2.53-1.2-3.52.73-1.81,3.55-3.84,7-5.76,10.47-3.5,6.34-3.57,6.47,3,9.8,14.93,7.52,30.81,9.28,47.29,7.74,24.32-2.26,39.69-18,40.07-42.41C354.24,103.51,353.94,77.77,354,52ZM322.8,106.18c-4.66,5-10.75,7-20.49,6.94a20.83,20.83,0,0,1-17.77-10.86c-4.13-7.34-4.13-15.18.31-22.39,5.38-8.73,14-11.12,23.64-10.16,8.54,0.85,15.27,4.9,18.38,13.15S329.1,99.36,322.8,106.18Z" transform="translate(1 1)"/><path d="M469.43,93.79a111.48,111.48,0,0,0-.69-16.07C466.58,63,456.89,52.2,442.34,49.32c-13.81-2.73-26.71-.65-38.16,9.3,0-13.84-.05-27,0-40.07,0-2.23-.45-3-2.86-2.94q-9.92.28-19.86,0c-2.66-.08-3.27.72-3.27,3.33q0.12,58.42,0,116.84c0,2.64.93,3,3.2,3,6.12-.14,12.25-0.27,18.36,0,3.5,0.18,4.56-.61,4.5-4.34-0.23-14.11-.28-28.24.09-42.35,0.3-11.35,5.86-18.82,15.37-20.75,11.7-2.38,22.52,1.06,23.64,16.84,0.18,2.49.3,5,.3,7.48,0,13.24.07,26.49-.05,39.73,0,2.52.48,3.46,3.22,3.37,6.49-.21,13-0.23,19.49,0,2.82,0.1,3.17-.92,3.15-3.38C469.37,121.53,469.45,107.66,469.43,93.79Z" transform="translate(1 1)"/><path d="M813.55,79.68c-1.1-12.54-7.47-22.06-19.34-27.25-8.77-3.83-18.06-4.55-27.49-4-11.22.66-21.89,3.24-31.65,9.06-1.75,1-2.15,1.88-1.09,3.78,2.38,4.23,4.64,8.53,6.63,12.95,1.06,2.35,1.83,2.77,4.14,1.26,8.1-5.33,17.17-7.17,26.75-6.49,9.37,0.67,15.47,5.88,16.64,13.82,0.34,2.33.14,3.63-2.88,3.45-4.85-.3-9.74-0.2-14.61-0.06-8.85.26-17.72,0.44-26.08,4a25,25,0,0,0-6.88,41.54c13.52,12.17,38.54,10.84,52.21-3.19,0,2.85.07,5.28,0,7.71-0.06,1.68.36,2.48,2.27,2.45,6.62-.1,13.25-0.07,19.87,0,1.54,0,2.26-.39,2.23-2.09C813.9,117.65,815.2,98.62,813.55,79.68ZM787.25,113c-4.77,9.07-20.14,12.77-28.43,6.8a9.46,9.46,0,0,1-3.93-9.47c0.51-4.12,3.11-6.41,6.73-7.64,5.17-1.75,10.59-1.13,15.92-1.24a32.62,32.62,0,0,1,3.36,0c2.42,0.25,6.36-1.17,7,.64A14.14,14.14,0,0,1,787.25,113Z" transform="translate(1 1)"/><path d="M717.67,116.1c-5-2.56-9.92-5.23-14.74-8.09-2.17-1.29-3.13-1-4.6,1.14a22.46,22.46,0,0,1-28.84,7.33c-10-5-13.13-13.67-12.63-24.22,0.51-10.78,6.45-19,15.73-21.75,10.54-3.1,19.9.11,26.18,9.2,1.09,1.58,1.76,1.89,3.43.92,4-2.3,8.08-4.42,12.14-6.59,6.55-3.51,6.58-3.53,2-9.64-9-12-21.78-15.9-33.45-16.07-11.2,0-19.42,1.55-27.23,5.28C626.19,67.71,623.71,105.39,642,124.5c13.42,14,30.24,17.63,48.72,14.49,12.07-2.05,21.82-8.08,28.14-19C720.08,117.87,719.63,117.11,717.67,116.1Z" transform="translate(1 1)"/><path d="M566.37,15.64c-6.62.1-13.24,0.18-19.85,0-2.71-.09-3.28.78-3.27,3.33,0.1,19.48.06,39,.06,58.45s0.06,38.72-.07,58.07c0,2.66.65,3.37,3.27,3.3,6.74-.18,13.49-0.14,20.24,0,2,0,2.48-.56,2.48-2.5q-0.08-59,0-118.08C569.24,15.81,568.28,15.61,566.37,15.64Z" transform="translate(1 1)"/><path d="M237.68,93.93c0-13.74-.06-27.49.06-41.23,0-2.53-.5-3.45-3.23-3.35-6.49.22-13,.22-19.48,0-2.69-.09-3.31.73-3.3,3.3q0.12,41.58,0,83.15c0,2.21.46,3,2.87,3,6.62-.18,13.24-0.19,19.86,0,2.59,0.08,3.32-.57,3.29-3.23C237.61,121.67,237.68,107.8,237.68,93.93Z" transform="translate(1 1)"/><path d="M519,51.84c0-2.06-.7-2.48-2.58-2.45-6.49.1-13,.22-19.48,0-3.07-.12-4,0.63-4,3.81C493.13,66.76,493,80.37,493,94h0c0,14,0,28,0,41.94,0,2,.28,2.89,2.58,2.84,7-.15,14-0.1,21,0,1.67,0,2.4-.23,2.4-2.2Q518.88,94.19,519,51.84Z" transform="translate(1 1)"/><path d="M603.25,107.92c-9.15,0-15.92,6.7-16,15.72a16.09,16.09,0,1,0,32.17.15C619.42,114.58,612.58,107.87,603.25,107.92Z" transform="translate(1 1)"/><path d="M225,8.18c-9.34-.08-16.48,6.38-16.32,14.74,0.16,8.09,7.13,14.3,16,14.28,9.32,0,16-6.33,16-15C240.69,14.15,234.06,8.25,225,8.18Z" transform="translate(1 1)"/><path d="M506.27,8.18c-9.17-.09-16.22,6.1-16.34,14.35s6.94,14.67,16,14.67c9.3,0,16-6.29,16-15C522,14.2,515.34,8.27,506.27,8.18Z" transform="translate(1 1)"/><rect class="cls-1" x="1" y="1" width="180.33" height="180.33"/><path class="cls-2" d="M104.82,69.26l0.14,0a2.07,2.07,0,0,1,.44,0,5.1,5.1,0,0,0-.47-0.48C104.89,68.9,104.85,69.08,104.82,69.26Z" transform="translate(1 1)"/><path class="cls-2" d="M27.74,104c-0.12-.76-0.21-1.51-0.3-2.27A10.47,10.47,0,0,0,27.74,104Z" transform="translate(1 1)"/><path class="cls-2" d="M27.19,82.83a0.69,0.69,0,0,1,.47,0c0.51-1.93,1.53-3.67,3.7-3.38s3.37,2.1,4.07,4.43c-2.43-.13-2.76-4-5-2.58s-1,4.14-1.07,6.28c-0.07,4-.16,8,0.9,11.87,0.55,2,1,4,3.94,4a2.49,2.49,0,0,1,2.5,3c-4.23-1.56-8.38-3-8.28-8.52-1.15,1.89,0,4-.65,6,0.08,3.79.56,7.5,3.19,10.48,2.8,3.18,7.47,1.71,11.91-.68-1.44-7.3-3.38-14.48-4.48-21.84a100.61,100.61,0,0,0-2.42-11c-0.54-2-1.28-4.1-3.6-4.92C28.42,76.64,27.08,79.18,27.19,82.83Z" transform="translate(1 1)"/><path d="M153.21,74.92c0.18-2-1.7-1.43-2.76-1.58-2.6-.35-5.22-0.57-7.84-0.68-1.38-.06-2.39-0.5-1.9-1.94,1-3.05-.5-5.88-0.47-8.82-1.43,4.88-1.43,4.88-8.33,4.4h0c-4.62,0-8.69,1.49-13.23,2.41-1,.2-2.76-0.77-2.78.38s1.16,1.69,2.35,2c3.47,0.84,6.93.41,10.41,0.13,1.79-.14,3.6,0,5.44,0-0.21,2-1.68,1.57-2.61,1.59a66.76,66.76,0,0,0-20.14,3.65c-3.3,1.13-4.2-.25-4.61-3-0.19-1.34-.12-2.82-1.33-4.19a2.07,2.07,0,0,0-.44,0l-0.14,0c-0.49,2.85,1.24,5.1,1.07,7.7-5.53-.51-10.59-2.3-15.84-3.43-0.47-1.39,2.19-1.43,1.44-2.88s-2.35-1.27-3.65-1.36Q79.45,68.73,71,68.36a8.12,8.12,0,0,0-6.51,2.24,6.81,6.81,0,0,1-5.19,1.71c-7.6-.06-15.17-1.17-22.79-0.46a2.76,2.76,0,0,1-1.17-.79c-0.77-4.27.83-8.67-.75-12.89-0.82,5.21.5,10.61-1.43,15.72,1.46,1.44-.64,1.42-0.88,2.16,2.31,0.82,3.06,2.9,3.6,4.92a100.61,100.61,0,0,1,2.42,11c1.1,7.36,3,14.54,4.48,21.84,0.52-.28,1-0.58,1.56-0.88a5.57,5.57,0,0,1-1.29,2.32c0.31,1.65.6,3.3,0.83,5,1.09,7.77,5.26,14.47,10.81,20.11C65.19,150.9,75.9,161.21,90.49,166c9.33,3.07,18.76,4.86,27.69-1.25A50.68,50.68,0,0,0,137.34,140c3.87-10.34,4.79-21.1,4.59-32-0.07-4.07-.08-7.73,3.07-11.26,2.87-3.22,3.08-8.05,4.24-12.26,0.45-1.65.36-3.42,2.85-4.23C154.34,79.54,153,76.77,153.21,74.92Zm-77.55,53c-0.82,3-2.43,2.64-4.37,1.53-2.73-1.56-3.56-4.42-4.34-7.16-2-6.9-4.34-8-10.7-4.68-3.28,1.71-6.78,0-8.08-4S46.67,105.23,46,101c-1.38-9.12-2.38-11.9-7.43-19.69,7.32-.75,14.28-1.53,21.25-2.14,1.81-.16,2.44,1.37,2.92,2.89,1.27,4,2.82,8,3.82,12.12s3.86,6.33,7.54,7.49c13,4.07,20.46,1,27-11,0.42-.76.62-1.64,1.09-2.36,1.22-1.86,2.35-4.53,4.82-4.09,2,0.34,1.36,3.13,1.94,4.82,1.51,4.4,1.46,9.21,4.64,13.22,2.67,3.36-.08,8-4.66,8.81-4,.72-7.61-0.68-11.21-2.11l-1.65.8c3.1,1.51.64,2.2-.52,2.6-3.16,1.1-6.51,1.59-9.46,3.35C81.27,118.67,77.19,122.27,75.67,127.9Zm48.6,14.37c-2.22,4.5-6,6.91-10.65,8.09a79.5,79.5,0,0,1-7.92,1.28c-4.45-.44-8.28-0.79-11.84-2.6a14.24,14.24,0,0,1-7.14-18.33c2-5.16,6.54-7.64,12-6.35a45.25,45.25,0,0,1,6,2,8.3,8.3,0,0,0,6.19.07c5.69-2.09,9.34-1.44,12.22,2S126.38,138,124.27,142.27Zm15.85-35c-0.33,6,0,12-1.29,17.9-0.32,1.54-.47,3.22-2.61,4.73,0-11-7.19-14.54-15.6-16.83-1-.26-1.94-0.46-2.91-0.69-2.57-.6-4.93-1.05-2.2-4.53a4.75,4.75,0,0,0-.39-6c-3.64-4-3.17-9.16-4.38-13.86,0.88,1.63,1.77,3.25,2.63,4.89,5,9.49,11,12.24,21.53,9.91C140.24,101.59,140.42,101.6,140.11,107.24Z" transform="translate(1 1)"/><path class="cls-3" d="M36.15,59.42c0.94-12.36,3.54-24.16,13.32-32.9C71.58,6.76,105.24,9,125.25,31.46,133.07,40.23,138.58,50,139,62.12c0,0.49,0,.92,0,1.31,0.44-.47.85-1,1.26-1.53a37.32,37.32,0,0,0-5.38-20.26c-14.34-25-42.44-36.4-68.86-26.7-20.18,7.4-29.27,19.2-31.36,43.23A1.84,1.84,0,0,1,36.15,59.42Z" transform="translate(1 1)"/><path class="cls-3" d="M35.4,71.06c0.95-3.67.44-7.43,0.71-11.14,0-.17,0-0.33,0-0.5a1.84,1.84,0,0,0-1.5-1.25C36.23,62.39,34.63,66.79,35.4,71.06Z" transform="translate(1 1)"/><path class="cls-3" d="M135.56,65.8a14.17,14.17,0,0,0-3.65.5c6.91,0.48,6.91.48,8.33-4.4-0.41.54-.82,1.05-1.26,1.53C138.86,65.4,138.08,66.11,135.56,65.8Z" transform="translate(1 1)"/><path class="cls-4" d="M30.93,114.45c-2.63-3-3.11-6.69-3.19-10.48a10.47,10.47,0,0,1-.3-2.27,126.68,126.68,0,0,1-.25-18.87c-0.11-3.64,1.23-6.19,5.14-6.78-0.59-1.08,1.52-1.06.88-2.16-4.64.9-7.56,3.59-7.64,8.41-0.15,9.36-.15,18.74,1.47,28a10.56,10.56,0,0,0,9.19,8.59c2.16,0.22,5.16-1.65,6.87-3.67-0.09-.48-0.18-1-0.27-1.45C38.4,116.16,33.73,117.62,30.93,114.45Z" transform="translate(1 1)"/><path class="cls-4" d="M42.83,113.77c0.1,0.48.18,1,.27,1.45a5.57,5.57,0,0,0,1.29-2.32C43.88,113.19,43.36,113.49,42.83,113.77Z" transform="translate(1 1)"/><path class="cls-4" d="M32.34,76.05c0.24-.74,2.34-0.73.88-2.16C33.85,75,31.75,75,32.34,76.05Z" transform="translate(1 1)"/><path class="cls-5" d="M28.14,92.72L28.39,98c-0.09,5.52,4.05,7,8.28,8.52a2.49,2.49,0,0,0-2.5-3c-2.92,0-3.39-2-3.94-4-1.06-3.89-1-7.9-.9-11.87,0-2.14-1.11-4.9,1.07-6.28s2.59,2.45,5,2.58c-0.7-2.33-1.84-4.13-4.07-4.43s-3.19,1.45-3.7,3.38l0.09,1.94A26.48,26.48,0,0,1,28.14,92.72Z" transform="translate(1 1)"/><path class="cls-5" d="M27.76,84.76l0.38,8A26.48,26.48,0,0,0,27.76,84.76Z" transform="translate(1 1)"/><path class="cls-2" d="M28.39,98a19.27,19.27,0,0,1-.54-2.1c0,0.5-.1,1-0.14,1.51a36,36,0,0,0-.27,4.3c0.09,0.76.18,1.51,0.3,2.27C28.39,102,27.24,99.88,28.39,98Z" transform="translate(1 1)"/><path class="cls-2" d="M27.66,82.82a0.69,0.69,0,0,0-.47,0c0.16,0.44.29,0.89,0.41,1.34C27.63,83.72,27.65,83.27,27.66,82.82Z" transform="translate(1 1)"/><path class="cls-2" d="M27.71,97.4c0-.5.09-1,0.14-1.51-0.78-3.87-.44-7.8-0.25-11.73-0.12-.45-0.25-0.89-0.41-1.34a126.68,126.68,0,0,0,.25,18.87A36,36,0,0,1,27.71,97.4Z" transform="translate(1 1)"/><path class="cls-2" d="M27.85,95.89a19.27,19.27,0,0,0,.54,2.1l-0.25-5.27C28.06,93.78,28,94.83,27.85,95.89Z" transform="translate(1 1)"/><path class="cls-2" d="M27.76,84.76l-0.09-1.94c0,0.45,0,.89-0.06,1.34C27.66,84.36,27.71,84.56,27.76,84.76Z" transform="translate(1 1)"/><path class="cls-2" d="M27.76,84.76c0-.2-0.1-0.4-0.15-0.6-0.19,3.92-.54,7.85.25,11.73,0.1-1.05.21-2.11,0.29-3.17Z" transform="translate(1 1)"/><path class="cls-2" d="M128.47,72.12L130,72C129.5,72,129,72.08,128.47,72.12Z" transform="translate(1 1)"/><path class="cls-2" d="M104,72.36c0,1,.8,2.73-0.77,2.77-3.76.1-7.35-1.18-10.9-2.33-0.51-.17-0.44-0.84-0.43-1.33,0-2.38-1.68-2.74-3.46-3.11C83.24,67.29,78,67.7,72.75,67.57c-3.45-.09-6.71.25-9.54,2.53a6.88,6.88,0,0,1-4.63,1.22C51.73,71.14,44.9,70.19,38,70.6A1.54,1.54,0,0,1,36.74,70a2.3,2.3,0,0,1-1.34,1,2.76,2.76,0,0,0,1.17.79c7.62-.71,15.19.39,22.79,0.46a6.81,6.81,0,0,0,5.19-1.71A8.12,8.12,0,0,1,71,68.36q8.4,0.37,16.79.92c1.31,0.09,2.9-.1,3.65,1.36s-1.91,1.49-1.44,2.88c5.25,1.14,10.31,2.92,15.84,3.43,0.16-2.6-1.56-4.85-1.07-7.7C103.3,69.66,104,71.22,104,72.36Z" transform="translate(1 1)"/><path class="cls-2" d="M123.69,72.54c1.59-.09,3.18-0.29,4.78-0.42C126.87,72.22,125.27,72.35,123.69,72.54Z" transform="translate(1 1)"/><path class="cls-2" d="M36.74,70a2.61,2.61,0,0,1-.24-0.31c-0.28-2.65,0-5.34-.18-8a10,10,0,0,0-.16-2.28c0,0.17,0,.33,0,0.5-0.27,3.71.23,7.47-.71,11.14A2.3,2.3,0,0,0,36.74,70Z" transform="translate(1 1)"/><path class="cls-2" d="M116.25,68.3a1.07,1.07,0,0,0-.33.7l1.19,0.26a21.08,21.08,0,0,0,4-.54c4.17-.81,6.15-2.39,10.42-2.21,0.15,0,.24.46,0.4,0.46,0.2-.2.48-0.5,0.81-0.81a8.85,8.85,0,0,1,2.84-.35c2.52,0.3,3.3-.4,3.43-2.37,0-.39,0-0.82,0-1.31-0.42-12.16-5.93-21.9-13.75-30.67C105.24,9,71.58,6.76,49.47,26.52c-9.78,8.74-12.37,20.54-13.32,32.9a10,10,0,0,1,.16,2.28c0.18,2.67-.1,5.35.18,8a2.61,2.61,0,0,0,.24.31A1.54,1.54,0,0,0,38,70.6c6.88-.41,13.7.53,20.56,0.71a6.88,6.88,0,0,0,4.63-1.22c2.83-2.27,6.09-2.61,9.54-2.53,5.23,0.13,10.49-.28,15.68.79,1.79,0.37,3.51.73,3.46,3.11,0,0.5-.09,1.17.43,1.33,3.56,1.14,7.14,2.43,10.9,2.33,1.57,0,.8-1.75.77-2.77s-0.7-2.71.82-3.1c0-.18.07-0.36,0.12-0.54a5.1,5.1,0,0,1,.47.48c1.21,1.37,1.14,2.85,1.33,4.19,0.4,2.79,1.31,4.17,4.61,3,6.5-2.23,18.93-3.71,25.84-3.88,0.94,0,1.63-.8.64-2.52s-7.37,1-9.16,1.18c-3.48.28-6.94,0.71-10.41-.13-1.18-.29-2.37-0.69-2.35-2,0,0,0-.06,0-0.1M138,64.37c0.15-.12.3-0.25,0.45-0.38C138.29,64.12,138.14,64.25,138,64.37Zm-0.73.52a4.93,4.93,0,0,1-3.77.57h0A5,5,0,0,0,137.26,64.89Zm0.6-.41a6.39,6.39,0,0,1-.59.41A6.33,6.33,0,0,0,137.86,64.47Zm-9.4,7.65c-1.59.13-3.18,0.33-4.78,0.42C125.27,72.35,126.87,72.22,128.47,72.12Z" transform="translate(1 1)"/><path class="cls-2" d="M95.56,112.42c1.17-.41,3.63-1.09.52-2.6-1.44.11-3-.42-4.29,0.56a1,1,0,0,1-1.56-.2c-0.31-.84.41-1.35,1.14-1.58,2.16-.68,4.32-0.86,6.36.42,3.6,1.43,7.2,2.83,11.21,2.11,4.58-.82,7.33-5.46,4.66-8.81-3.18-4-3.13-8.82-4.64-13.22-0.58-1.69,0-4.47-1.94-4.82-2.47-.44-3.6,2.23-4.82,4.09-0.47.72-.68,1.6-1.09,2.36-6.54,12-14,15.06-27,11-3.68-1.15-6.53-3.3-7.54-7.49S64,86.15,62.77,82.1c-0.47-1.51-1.11-3-2.92-2.89-7,.61-13.93,1.39-21.25,2.14,5,7.79,6,10.56,7.43,19.69,0.63,4.19.83,8.46,2.14,12.52s4.8,5.74,8.08,4c6.36-3.3,8.73-2.22,10.7,4.68,0.78,2.74,1.61,5.6,4.34,7.16,1.93,1.11,3.55,1.49,4.37-1.53,1.52-5.64,5.6-9.23,10.44-12.13C89.05,114,92.41,113.52,95.56,112.42Z" transform="translate(1 1)"/><path class="cls-6" d="M110.87,126.45a8.3,8.3,0,0,1-6.19-.07,45.25,45.25,0,0,0-6-2c-5.42-1.29-10,1.19-12,6.35A14.24,14.24,0,0,0,93.86,149c3.56,1.81,7.39,2.15,11.84,2.6a79.5,79.5,0,0,0,7.92-1.28c4.62-1.18,8.42-3.58,10.65-8.09,2.12-4.28,1.68-10.33-1.19-13.79S116.56,124.36,110.87,126.45Zm5.57,17.17c-3,3-6.91,3.15-10.95,3.38-3.69-.36-7.61-0.31-10.79-3.1-1.8-1.57-2.74-3.4-1.73-5.61,1.11-2.42,3.7-2,5.25-1.21,5.18,2.58,10.37,2.2,15.71,1,1.47-.32,3.14-0.51,3.93,1.2S117.6,142.46,116.44,143.62Zm1.72-10.13a41,41,0,0,1-25.94-1.11c-2.34-.86-2.47-1.42-2.64-3.52,10.3,6,21.12,5.94,32.55,1.44C121.5,132.63,119.65,133.07,118.16,133.5Z" transform="translate(1 1)"/><path class="cls-6" d="M134.91,102.77c-10.57,2.33-16.54-.42-21.53-9.91-0.86-1.64-1.75-3.26-2.63-4.89,1.21,4.7.74,9.87,4.38,13.86a4.75,4.75,0,0,1,.39,6c-2.73,3.47-.38,3.92,2.2,4.53,1,0.23,1.95.43,2.91,0.69,8.41,2.29,15.59,5.81,15.6,16.83,2.14-1.5,2.28-3.19,2.61-4.73,1.25-5.9,1-11.93,1.29-17.9C140.42,101.6,140.24,101.59,134.91,102.77Z" transform="translate(1 1)"/><path class="cls-7" d="M94.57,109.19a2.07,2.07,0,0,1,1.52.63l1.65-.8C96.62,108.58,95.53,109,94.57,109.19Z" transform="translate(1 1)"/><path class="cls-7" d="M93.55,109.19a2.42,2.42,0,0,0,1,0C94.18,109.18,93.82,109.21,93.55,109.19Z" transform="translate(1 1)"/><path class="cls-7" d="M91.38,108.6c-0.72.23-1.45,0.74-1.14,1.58a1,1,0,0,0,1.56.2c1.34-1,2.85-.45,4.29-0.56a2.07,2.07,0,0,0-1.52-.63,2.42,2.42,0,0,1-1,0c0.27,0,.63,0,1,0,1-.16,2.05-0.61,3.17-0.17C95.7,107.74,93.54,107.92,91.38,108.6Z" transform="translate(1 1)"/><path class="cls-8" d="M113.93,138.11c-5.34,1.17-10.53,1.55-15.71-1-1.56-.77-4.14-1.21-5.25,1.21-1,2.2-.07,4,1.73,5.61,3.19,2.79,7.1,2.74,10.79,3.1,4-.22,8-0.37,10.95-3.38,1.16-1.17,2.23-2.56,1.43-4.32S115.4,137.79,113.93,138.11Z" transform="translate(1 1)"/><path class="cls-9" d="M89.58,128.87c0.17,2.1.3,2.66,2.64,3.52a41,41,0,0,0,25.94,1.11c1.49-.42,3.34-0.86,4-3.19C110.7,134.81,99.88,134.85,89.58,128.87Z" transform="translate(1 1)"/></svg>